<svg xmlns="http://www.w3.org/2000/svg" viewBox="0 0 61.8 62.94"><defs><style>.cls-1{fill:lime;}</style></defs><title>logo-navbar</title><g id="Layer_2" data-name="Layer 2"><g id="Layer_1-2" data-name="Layer 1"><g id="Grupo_2" data-name="Grupo 2"><path id="Trazado_1" data-name="Trazado 1" d="M28.81,55.4a24.68,24.68,0,0,1-10.54,2.13C7.2,57.53,0,50,0,38.8S7.73,19.32,19.71,19.32A22.31,22.31,0,0,1,29,21.22l-1.52,5.15a15.47,15.47,0,0,0-7.73-1.74c-8.41,0-13,6.22-13,13.87,0,8.49,5.46,13.72,12.73,13.72a18.86,18.86,0,0,0,8.19-1.81Z"/><path id="Trazado_2" data-name="Trazado 2" d="M47.44,22.08V52.57a5.65,5.65,0,0,0,.26,2.27,1.9,1.9,0,0,0,.87.52,26.89,26.89,0,0,0,7.21.61v.79H31.1V56a26,26,0,0,0,7-.61l.61-.26c.35-.29.52-1.13.52-2.53V22.08H31.1V20.61h8.17V15.48A16.16,16.16,0,0,1,43.33,4.84Q47.38,0,52.71,0a12.61,12.61,0,0,1,5.58,1.08,5.48,5.48,0,0,1,2.83,2.7,8,8,0,0,1,.66,3,4.46,4.46,0,0,1-2.37,3.91,4,4,0,0,1-2.19.61,4.3,4.3,0,0,1-2.95-1.16A4,4,0,0,1,53,7.09a3.7,3.7,0,0,1,3.33-4h.06a5.54,5.54,0,0,0-1.22-1.74A2.93,2.93,0,0,0,53.26.79q-3.42,0-4.62,2T47.44,10V20.61h8.08v1.48Z"/><rect id="Rectángulo_1" data-name="Rectángulo 1" class="cls-1" x="31.11" y="58.39" width="30.66" height="4.55"/><circle id="Elipse_1" data-name="Elipse 1" cx="59.52" cy="54.6" r="2.27"/></g></g></g></svg>