<svg id="Componente_22_1" data-name="Componente 22 – 1" xmlns="http://www.w3.org/2000/svg" width="134.211" height="136.677" viewBox="0 0 134.211 136.677">
  <g id="Grupo_4" data-name="Grupo 4">
    <g id="Grupo_3" data-name="Grupo 3">
      <path id="Trazado_1" data-name="Trazado 1" d="M629.547,431.76c-3.786,1.976-12.183,4.61-22.885,4.61-24.037,0-39.678-16.3-39.678-40.666,0-24.531,16.793-42.312,42.806-42.312,8.561,0,16.134,2.14,20.086,4.116l-3.292,11.2c-3.458-1.976-8.891-3.787-16.793-3.787-18.275,0-28.153,13.5-28.153,30.129,0,18.439,11.854,29.8,27.659,29.8a41.156,41.156,0,0,0,17.781-3.951Z" transform="translate(-566.985 -311.457)" fill="lime"/>
      <path id="Trazado_2" data-name="Trazado 2" d="M949.4,185.939v66.207q0,3.985.566,4.934a3.994,3.994,0,0,0,1.887,1.139q3.963,1.327,15.664,1.327v1.7h-53.6v-1.7q11.324,0,15.287-1.327l1.321-.569q1.132-.946,1.132-5.5V185.939H913.92V182.73h17.741V171.595q0-12.642,8.809-23.12T960.838,138q7.387,0,12.126,2.359t6.157,5.851a17.382,17.382,0,0,1,1.422,6.511q0,5.286-5.146,8.493a8.741,8.741,0,0,1-4.766,1.321,9.2,9.2,0,0,1-6.387-2.521,8.544,8.544,0,0,1-2.763-6.629q0-7.471,7.361-8.779a12.215,12.215,0,0,0-2.642-3.775,6.3,6.3,0,0,0-4.152-1.132q-7.445,0-10.044,4.228t-2.6,15.688V182.73h17.552v3.209Z" transform="translate(-846.373 -138)" fill="lime"/>
      <rect id="Rectángulo_1" data-name="Rectángulo 1" width="66.586" height="9.878" transform="translate(67.563 126.799)" fill="#fff"/>
      <path id="Trazado_3" data-name="Trazado 3" d="M4.939,0A4.939,4.939,0,1,1,0,4.939,4.939,4.939,0,0,1,4.939,0Z" transform="translate(124.333 113.628)" fill="#fff"/>
    </g>
  </g>
</svg>
